<?xml version="1.0" encoding="UTF-8"?>
<svg version="1.1" xmlns="http://www.w3.org/2000/svg" width="546" height="546">
<path d="M0 0 C1.37046157 -0.00551503 1.37046157 -0.00551503 2.76860923 -0.01114148 C5.81910851 -0.02212307 8.86957368 -0.02601268 11.92008972 -0.02983093 C14.11176663 -0.03609959 16.30344248 -0.04274674 18.49511719 -0.04974365 C25.68128222 -0.0707326 32.86744734 -0.08113886 40.05363464 -0.09111023 C42.53079934 -0.09515923 45.00796393 -0.0992762 47.4851284 -0.10346031 C59.12065577 -0.1224979 70.75617684 -0.13673388 82.39171678 -0.14507228 C83.72897391 -0.14604079 85.06623104 -0.14701503 86.40348816 -0.147995 C87.3984623 -0.14872061 87.3984623 -0.14872061 88.41353693 -0.14946087 C99.16022302 -0.15776239 109.90679787 -0.1831066 120.65343539 -0.21557567 C131.70296992 -0.24868627 142.75244505 -0.26632871 153.80202883 -0.26985329 C159.99955131 -0.27220246 166.19689755 -0.28114658 172.39437294 -0.30631447 C178.22455348 -0.32961007 184.05444187 -0.33382224 189.88465691 -0.32355309 C192.02033587 -0.32305804 194.1560293 -0.3293691 196.29166412 -0.34310913 C199.2155423 -0.36086336 202.13837586 -0.35370441 205.06225586 -0.34057617 C205.89992503 -0.35154542 206.73759419 -0.36251466 207.60064727 -0.37381631 C214.87942343 -0.29533859 221.52034343 1.69493909 227.34269714 6.15498352 C227.94211121 6.8536554 228.54152527 7.55232727 229.15910339 8.27217102 C229.77656433 8.95537415 230.39402527 9.63857727 231.03019714 10.34248352 C235.44498787 17.66308338 236.1611706 25.4799358 236.0958252 33.85604858 C236.0997996 34.88729793 236.10377401 35.91854729 236.10786885 36.98104662 C236.11743772 40.41164614 236.10570636 43.84182768 236.09391785 47.27241516 C236.09634757 49.74201612 236.10006865 52.2116161 236.10498047 54.68121338 C236.11339426 60.6774002 236.10789775 66.67342526 236.09571753 72.6695934 C236.08204957 79.6603352 236.08373958 86.65104869 236.08585086 93.64180046 C236.08903589 106.11895717 236.07740056 118.59605666 236.05778503 131.07319641 C236.03877889 143.16598757 236.03169917 155.2587117 236.03727722 167.35151672 C236.04334179 180.53794617 236.04314585 193.7243462 236.03179139 206.91077322 C236.03058417 208.31811392 236.02937818 209.72545463 236.02817345 211.13279533 C236.02726814 212.17130459 236.02726814 212.17130459 236.02634454 213.23079382 C236.02247356 218.09782614 236.02285582 222.96484746 236.02475929 227.83188057 C236.02710905 234.38760713 236.01851586 240.94326008 236.0026989 247.49897194 C235.99846223 249.9027445 235.99760134 252.30652577 236.0003891 254.71030045 C236.00362055 257.99538631 235.9945046 261.28021742 235.9822998 264.5652771 C235.98607913 265.5127593 235.98985845 266.4602415 235.9937523 267.43643528 C235.92536191 277.86782947 234.47869958 284.36475911 227.09269714 291.97529602 C219.48935007 298.93981163 211.48377827 299.29935815 201.58833313 299.28088379 C200.69032073 299.28314935 199.79230833 299.2854149 198.86708343 299.28774911 C195.86952087 299.29405984 192.87200387 299.29326163 189.87443542 299.29243469 C187.72054486 299.29542798 185.56665483 299.2988309 183.4127655 299.3026123 C177.56978399 299.31143855 171.72681713 299.31378982 165.88382959 299.31442809 C162.23184081 299.3151393 158.57985575 299.31727495 154.92786789 299.31992531 C142.18316664 299.3291737 129.43847585 299.33326077 116.69377136 299.33247375 C104.82010315 299.33187288 92.94648036 299.34242796 81.07282364 299.35821742 C70.87219947 299.371298 60.67159013 299.37665744 50.47095764 299.37601835 C44.38139554 299.37576354 38.29187383 299.37860527 32.2023201 299.3891964 C26.47480017 299.39888621 20.74735916 299.39895044 15.01983643 299.39167976 C12.92083496 299.39063507 10.82182855 299.39298994 8.72283554 299.39904022 C5.85141169 299.40677935 2.98025912 299.40210261 0.10884094 299.39440918 C-0.71617727 299.39955274 -1.54119549 299.40469631 -2.39121425 299.40999573 C-10.30256155 299.36334827 -17.56334146 298.67160782 -23.59089661 293.14717102 C-24.39140442 292.44592102 -25.19191223 291.74467102 -26.01667786 291.02217102 C-31.68377283 283.81840263 -32.86817862 276.14239418 -32.77960205 267.20378113 C-32.78513645 266.1473249 -32.79067084 265.09086867 -32.79637295 264.00239861 C-32.80991221 260.486447 -32.79504631 256.97121354 -32.78010559 253.45527649 C-32.78389114 250.92493896 -32.78939313 248.39460351 -32.79647827 245.86427307 C-32.80897208 239.71999835 -32.80288722 233.57598702 -32.78780269 227.43172561 C-32.77089268 220.26980871 -32.77415904 213.1079425 -32.77789677 205.9460118 C-32.78376722 193.16487877 -32.76963474 180.38384445 -32.74494934 167.60273743 C-32.72102089 155.21207481 -32.71395003 142.821544 -32.72444153 130.43086243 C-32.73585958 116.92178044 -32.73777062 103.41275932 -32.72334343 89.90367806 C-32.72181766 88.46237255 -32.72029731 87.02106703 -32.71878242 85.57976151 C-32.71802461 84.87069663 -32.7172668 84.16163176 -32.71648602 83.43108007 C-32.71175084 78.44334647 -32.71358911 73.45564013 -32.71784782 68.46790695 C-32.72329848 61.75208387 -32.71249904 55.03646984 -32.69089317 48.32067108 C-32.68533109 45.85681651 -32.68485468 43.39294439 -32.68984604 40.92908859 C-32.69580677 37.56472164 -32.68327787 34.20091054 -32.66607666 30.83659363 C-32.67208671 29.8628529 -32.67809675 28.88911216 -32.68428892 27.88586414 C-32.60299385 19.13524104 -30.65402117 12.52279558 -24.27839661 6.14717102 C-16.72084359 0.26023498 -9.29458625 -0.00202943 0 0 Z " fill="#ECECEB" transform="translate(171.2783966064453,138.8528289794922)"/>
<path d="M0 0 C8.0339376 7.02420774 15.39991488 17.10721453 16.33325195 28.09716797 C16.41317854 30.65126636 16.41731153 33.19481209 16.39453125 35.75 C16.40613281 37.03970703 16.40613281 37.03970703 16.41796875 38.35546875 C16.37652502 52.01117799 11.007386 62.78204219 3.79907227 74.03857422 C-2.07718184 83.26186714 -4.95096207 90.72815955 -4.99609375 101.8125 C-5.02509766 103.77316406 -5.02509766 103.77316406 -5.0546875 105.7734375 C-5.08366559 107.82744369 -5.10547002 109.88034611 -5.10595703 111.93457031 C-5.12761578 124.87412329 -5.12761578 124.87412329 -8.27734375 128.75 C-12.55230928 132.27360795 -15.79849557 132.00718962 -21.14453125 131.97265625 C-22.3721669 131.97053383 -22.3721669 131.97053383 -23.62460327 131.96836853 C-26.243262 131.9627629 -28.86183579 131.95020948 -31.48046875 131.9375 C-33.25390502 131.93248572 -35.02734262 131.92792269 -36.80078125 131.92382812 C-41.15237657 131.91279164 -45.50390825 131.89552325 -49.85546875 131.875 C-49.85546875 131.215 -49.85546875 130.555 -49.85546875 129.875 C-50.84546875 129.545 -51.83546875 129.215 -52.85546875 128.875 C-55.18228345 125.5596788 -55.13404375 122.42062657 -55.19921875 118.45703125 C-55.22886719 117.20212891 -55.25851563 115.94722656 -55.2890625 114.65429688 C-55.31097656 113.34525391 -55.33289063 112.03621094 -55.35546875 110.6875 C-55.6272998 94.68944329 -57.70773333 83.11489472 -67.35546875 69.9375 C-77.53797827 55.93089246 -79.10921789 41.68617038 -77.85546875 24.875 C-75.46145583 13.2606173 -66.3072186 4.06856133 -57.0234375 -2.70703125 C-39.49508103 -14.17152386 -16.46565424 -12.67008883 0 0 Z " fill="#040404" transform="translate(302.85546875,230.125)"/>
<path d="M0 0 C5.12494321 -0.65424807 5.12494321 -0.65424807 7.671875 1.25 C10.0887803 4.43462817 9.40815515 8.17940011 9 12 C8 15.0625 8 15.0625 7 17 C10.75157333 15.74947556 11.21022587 14.06797078 13.0390625 10.7265625 C14.18043974 8.67579526 14.97704658 7.24489441 17 6 C22.43478261 6.43478261 22.43478261 6.43478261 24 8 C24.70983213 15.09832134 24.70983213 15.09832134 21.6875 18.9375 C19 21 19 21 16 22 C14.35929403 25.79033462 13.76612753 29.95446115 13 34 C12.86029785 34.7125293 12.7205957 35.42505859 12.57666016 36.15917969 C9.16757905 54.31783318 9.69430318 72.61116053 10 91 C8.68 91 7.36 91 6 91 C6 83.41 6 75.82 6 68 C4.02 68.495 4.02 68.495 2 69 C1.67 76.26 1.34 83.52 1 91 C-0.32 91 -1.64 91 -3 91 C-2.98428955 90.05382812 -2.9685791 89.10765625 -2.95239258 88.1328125 C-2.89708087 84.53947862 -2.8632921 80.94618005 -2.83520508 77.35253906 C-2.8203442 75.81276066 -2.80004961 74.27302277 -2.77368164 72.73339844 C-2.61221177 63.04520616 -3.25816772 54.07792573 -5.26293945 44.59375 C-6.22266629 39.91432666 -6.75512063 35.25220628 -7.1875 30.5 C-7.26935547 29.66597656 -7.35121094 28.83195312 -7.43554688 27.97265625 C-7.6299995 25.98237644 -7.81602346 23.99127552 -8 22 C-8.93972656 21.73832031 -9.87945312 21.47664063 -10.84765625 21.20703125 C-14.78298504 19.70019532 -15.56865217 18.41798531 -17.37890625 14.8125 C-18.27234225 12.20524024 -18.01353178 10.53382946 -17 8 C-15 6 -15 6 -12.625 5.5625 C-10 6 -10 6 -7.8125 8.1875 C-6 11 -6 11 -5 13.75 C-4.67 14.4925 -4.34 15.235 -4 16 C-1.95894361 16.88693303 -1.95894361 16.88693303 0 17 C-0.32484375 16.44441406 -0.6496875 15.88882812 -0.984375 15.31640625 C-2.14202466 12.67607452 -2.26732198 10.80861849 -2.25 7.9375 C-2.25515625 7.08027344 -2.2603125 6.22304688 -2.265625 5.33984375 C-2 3 -2 3 0 0 Z " fill="#E4E5E4" transform="translate(269,267)"/>
<path d="M0 0 C1.32 0.33 2.64 0.66 4 1 C5.32 9.91 6.64 18.82 8 28 C8.66 28 9.32 28 10 28 C10.33 24.37 10.66 20.74 11 17 C11.99 16.67 12.98 16.34 14 16 C15.26172899 29.65371014 15.10117918 43.30033933 15 57 C13.68 57 12.36 57 11 57 C11 49.41 11 41.82 11 34 C9.02 34.495 9.02 34.495 7 35 C6.67 42.26 6.34 49.52 6 57 C4.68 57 3.36 57 2 57 C2.01047363 56.02240723 2.02094727 55.04481445 2.03173828 54.03759766 C2.06828974 50.36608631 2.09102662 46.69459061 2.10986328 43.02294922 C2.11984159 41.44219242 2.13342907 39.86145369 2.15087891 38.28076172 C2.23573538 30.38911001 2.3088926 22.78256461 0.44970703 15.05712891 C-0.22172023 11.98576838 -0.19163397 9.0067964 -0.125 5.875 C-0.10695313 4.75867188 -0.08890625 3.64234375 -0.0703125 2.4921875 C-0.04710937 1.66976563 -0.02390625 0.84734375 0 0 Z " fill="#E4E7E5" transform="translate(264,301)"/>
<path d="M0 0 C1.3476599 0.63720876 2.68381776 1.30008105 4 2 C3.59346489 10.31294213 2.43289026 18.18474182 0.69921875 26.3203125 C-0.289508 31.52355606 -0.71468547 36.71676194 -1 42 C-1.66 42 -2.32 42 -3 42 C-4.51736711 35.3358877 -5.87802793 28.65729394 -7.125 21.9375 C-7.30675781 20.99583984 -7.48851562 20.05417969 -7.67578125 19.08398438 C-8.68465047 13.63381492 -9.35874064 8.54474564 -9 3 C-6.36065911 -0.12810773 -3.97332962 -0.4966662 0 0 Z " fill="#0A0A0B" transform="translate(275,287)"/>
<path d="M0 0 C7.92 0 15.84 0 24 0 C22.90531217 5.47343915 22.48193524 6.86264534 18 10 C14.15499857 10.84851112 10.8408198 10.88212837 7 10 C4.06438832 8.09513665 1.86274118 5.96894243 0 3 C0 2.01 0 1.02 0 0 Z " fill="#040404" transform="translate(260,378)"/>
<path d="M0 0 C10.23 0 20.46 0 31 0 C31 1.32 31 2.64 31 4 C20.77 4 10.54 4 0 4 C0 2.68 0 1.36 0 0 Z " fill="#131313" transform="translate(257,371)"/>
<path d="M0 0 C9.9 0 19.8 0 30 0 C30 1.32 30 2.64 30 4 C20.1 4 10.2 4 0 4 C0 2.68 0 1.36 0 0 Z " fill="#090A08" transform="translate(258,364)"/>
<path d="M0 0 C-0.66 0 -1.32 0 -2 0 C-3.01973129 3.05919388 -3.11533602 5.12418025 -3.09765625 8.32421875 C-3.09443359 9.35224609 -3.09121094 10.38027344 -3.08789062 11.43945312 C-3.07951172 12.51130859 -3.07113281 13.58316406 -3.0625 14.6875 C-3.05798828 15.77095703 -3.05347656 16.85441406 -3.04882812 17.97070312 C-3.03703743 20.64719085 -3.02058063 23.32356777 -3 26 C-4.32 26 -5.64 26 -7 26 C-7 17.42 -7 8.84 -7 0 C-3.86650268 -1.04449911 -3.01031744 -0.93423645 0 0 Z " fill="#E2E6E2" transform="translate(273,332)"/>
<path d="M0 0 C0.74886475 0.00523682 1.49772949 0.01047363 2.26928711 0.01586914 C3.07817383 0.0190918 3.88706055 0.02231445 4.72045898 0.02563477 C5.5705957 0.03401367 6.42073242 0.04239258 7.29663086 0.05102539 C8.15063477 0.05553711 9.00463867 0.06004883 9.88452148 0.06469727 C12.00108749 0.07652166 14.11761771 0.0944577 16.23413086 0.11352539 C16.56413086 1.76352539 16.89413086 3.41352539 17.23413086 5.11352539 C10.96413086 5.11352539 4.69413086 5.11352539 -1.76586914 5.11352539 C-2.09586914 3.79352539 -2.42586914 2.47352539 -2.76586914 1.11352539 C-1.76586914 0.11352539 -1.76586914 0.11352539 0 0 Z " fill="#272727" transform="translate(190.765869140625,269.886474609375)"/>
<path d="M0 0 C1.98 0.495 1.98 0.495 4 1 C4 7.27 4 13.54 4 20 C2.35 19.67 0.7 19.34 -1 19 C-1.02683987 16.02077407 -1.04676037 13.04178705 -1.0625 10.0625 C-1.07087891 9.21236328 -1.07925781 8.36222656 -1.08789062 7.48632812 C-1.09111328 6.67744141 -1.09433594 5.86855469 -1.09765625 5.03515625 C-1.10289307 4.2862915 -1.10812988 3.53742676 -1.11352539 2.76586914 C-1 1 -1 1 0 0 Z " fill="#141415" transform="translate(271,188)"/>
<path d="M0 0 C9.24 0 18.48 0 28 0 C29 3 29 3 27.8125 6.0625 C26.00783543 8.9873012 25.17119503 9.90648447 22 11 C22.474375 10.4225 22.94875 9.845 23.4375 9.25 C24.96735244 7.04701249 25.44338952 5.57229698 26 3 C24.92516357 3.02356567 24.92516357 3.02356567 23.82861328 3.04760742 C20.59415524 3.10981863 17.35982281 3.14894649 14.125 3.1875 C12.43310547 3.22520508 12.43310547 3.22520508 10.70703125 3.26367188 C9.09248047 3.27817383 9.09248047 3.27817383 7.4453125 3.29296875 C5.95281982 3.31653442 5.95281982 3.31653442 4.43017578 3.34057617 C3.62821777 3.22818604 2.82625977 3.1157959 2 3 C1.34 2.01 0.68 1.02 0 0 Z " fill="#BEBFBB" transform="translate(258,375)"/>
<path d="M0 0 C6.27 0 12.54 0 19 0 C18.67 1.65 18.34 3.3 18 5 C12.06 5 6.12 5 0 5 C0 3.35 0 1.7 0 0 Z " fill="#272525" transform="translate(338,270)"/>
<path d="M0 0 C4.20185927 1.5093153 5.62156899 4.10198618 7.8125 7.875 C8.43769531 8.92429688 9.06289062 9.97359375 9.70703125 11.0546875 C11 14 11 14 10.69921875 16.3828125 C10.46847656 16.91648438 10.23773438 17.45015625 10 18 C6.03059606 16.49497101 4.44948525 14.20667285 2.1875 10.6875 C1.56230469 9.74261719 0.93710938 8.79773438 0.29296875 7.82421875 C-1.17134481 4.62573324 -1.07189224 3.28753541 0 0 Z " fill="#19181A" transform="translate(230,199)"/>
<path d="M0 0 C-0.10546875 1.734375 -0.10546875 1.734375 -1 4 C-3.0948401 5.60107723 -5.05594289 6.9269372 -7.3125 8.25 C-7.89451172 8.61351562 -8.47652344 8.97703125 -9.07617188 9.3515625 C-12.412304 11.36155377 -14.00335142 12 -18 12 C-17.89453125 9.73828125 -17.89453125 9.73828125 -17 7 C-14.19921875 4.98046875 -14.19921875 4.98046875 -10.6875 3.1875 C-8.96080078 2.28064453 -8.96080078 2.28064453 -7.19921875 1.35546875 C-4 0 -4 0 0 0 Z " fill="#181717" transform="translate(217,304)"/>
<path d="M0 0 C4.3282367 0.60225928 7.52979838 2.1555749 11.3125 4.3125 C12.38113281 4.90675781 13.44976562 5.50101562 14.55078125 6.11328125 C15.35902344 6.73589844 16.16726563 7.35851562 17 8 C17 9.32 17 10.64 17 12 C12.99121708 11.38551503 9.83707608 10.13079124 6.25 8.25 C5.28578125 7.76015625 4.3215625 7.2703125 3.328125 6.765625 C1 5 1 5 0.171875 2.296875 C0.11515625 1.53890625 0.0584375 0.7809375 0 0 Z " fill="#171718" transform="translate(328,304)"/>
<path d="M0 0 C0.33 0.99 0.66 1.98 1 3 C10.57 3 20.14 3 30 3 C30 3.99 30 4.98 30 6 C20.43 6 10.86 6 1 6 C0.67 4.02 0.34 2.04 0 0 Z " fill="#A1A4A2" transform="translate(257,365)"/>
<path d="M0 0 C0.66 0.33 1.32 0.66 2 1 C2.28100502 8.16562789 1.20443195 14.94546999 0 22 C-0.33 22 -0.66 22 -1 22 C-1.33 20.35 -1.66 18.7 -2 17 C-2.66 17 -3.32 17 -4 17 C-4 19.31 -4 21.62 -4 24 C-4.33 24 -4.66 24 -5 24 C-5.33560317 18.51848162 -4.66944096 13.44293408 -3.625 8.0625 C-3.49891357 7.38759521 -3.37282715 6.71269043 -3.24291992 6.01733398 C-2.89873844 4.32906261 -2.45671793 2.66136386 -2 1 C-1.34 0.67 -0.68 0.34 0 0 Z " fill="#D0D4D1" transform="translate(279,301)"/>
<path d="M0 0 C-0.1015625 1.734375 -0.1015625 1.734375 -1 4 C-3.11551683 5.5968364 -5.10153619 6.92707925 -7.375 8.25 C-7.96539062 8.61351562 -8.55578125 8.97703125 -9.1640625 9.3515625 C-11.98527245 11.04174684 -13.65629056 12 -17 12 C-16.86328125 9.73828125 -16.86328125 9.73828125 -16 7 C-13.41796875 4.98046875 -13.41796875 4.98046875 -10.1875 3.1875 C-9.12917969 2.58292969 -8.07085937 1.97835937 -6.98046875 1.35546875 C-4 0 -4 0 0 0 Z " fill="#181717" transform="translate(345,230)"/>
<path d="M0 0 C4.73799402 0.52019519 7.87422173 1.80539445 11.875 4.375 C13.32519531 5.28378906 13.32519531 5.28378906 14.8046875 6.2109375 C15.52914062 6.80132812 16.25359375 7.39171875 17 8 C17 8.99 17 9.98 17 11 C10.59477293 10.72743715 5.74896612 8.35152046 1 4 C0.2421875 1.80078125 0.2421875 1.80078125 0 0 Z " fill="#131313" transform="translate(199,230)"/>
<path d="M0 0 C1.32 0 2.64 0 4 0 C3.402541 4.35176215 1.81643548 7.52603237 -0.375 11.3125 C-0.98085938 12.38113281 -1.58671875 13.44976562 -2.2109375 14.55078125 C-3.09652344 15.76314453 -3.09652344 15.76314453 -4 17 C-4.99 17 -5.98 17 -7 17 C-6.46105575 12.40191871 -5.23428472 9.13215631 -2.9375 5.125 C-2.38964844 4.15820312 -1.84179688 3.19140625 -1.27734375 2.1953125 C-0.85582031 1.47085938 -0.43429687 0.74640625 0 0 Z " fill="#0E0E0F" transform="translate(311,200)"/>
<path d="M0 0 C0.66 0.33 1.32 0.66 2 1 C1.67 1.639375 1.34 2.27875 1 2.9375 C0.05995651 5.81638317 -0.07997986 7.47824504 0 10.4375 C0.10456025 14.34543939 -0.50049966 17.34496791 -2 21 C-2.99 21 -3.98 21 -5 21 C-5 16.38 -5 11.76 -5 7 C-4.34 6.67 -3.68 6.34 -3 6 C-2.65657551 4.66923011 -2.32380126 3.33568021 -2 2 C-1.34 1.34 -0.68 0.68 0 0 Z " fill="#EEEFED" transform="translate(283,281)"/>
<path d="M0 0 C3.125 -0.1875 3.125 -0.1875 6 0 C6 2.69221537 5.89114922 5.3166221 5.6875 8 C5.62949219 8.86625 5.57148438 9.7325 5.51171875 10.625 C5 13 5 13 2 16 C2 12.04 2 8.08 2 4 C1.01 4 0.02 4 -1 4 C-1 6.97 -1 9.94 -1 13 C-1.33 13 -1.66 13 -2 13 C-2.05416188 11.39620659 -2.09286638 9.79188594 -2.125 8.1875 C-2.14820313 7.29417969 -2.17140625 6.40085937 -2.1953125 5.48046875 C-2 3 -2 3 0 0 Z " fill="#B4B5B4" transform="translate(269,267)"/>
<path d="M0 0 C0.99 0 1.98 0 3 0 C3.33 3.3 3.66 6.6 4 10 C4.66 9.67 5.32 9.34 6 9 C6.33 10.32 6.66 11.64 7 13 C2.375 17 2.375 17 -1 17 C-0.835 16.05125 -0.67 15.1025 -0.5 14.125 C0.18541792 9.4236123 0.08583441 4.73996714 0 0 Z " fill="#F2F4F3" transform="translate(268,271)"/>
<path d="M0 0 C0.125 6.625 0.125 6.625 -1 10 C-1.99 10 -2.98 10 -4 10 C-4.99 11.485 -4.99 11.485 -6 13 C-9.625 13.1875 -9.625 13.1875 -13 13 C-10.38485683 10.87961365 -7.80362384 8.86908256 -5 7 C-4.67 6.01 -4.34 5.02 -4 4 C-4.99 3.67 -5.98 3.34 -7 3 C-4.55619622 0.20708139 -3.75791236 0 0 0 Z " fill="#E6E6E6" transform="translate(349,226)"/>
<path d="M0 0 C1.32 0.66 2.64 1.32 4 2 C3.67 2.99 3.34 3.98 3 5 C3.66 5.33 4.32 5.66 5 6 C4.01 6.495 4.01 6.495 3 7 C3.03480469 7.71285156 3.06960938 8.42570312 3.10546875 9.16015625 C3.27931846 15.31112456 2.90464152 19.55379715 0 25 C-0.33 25 -0.66 25 -1 25 C-1.33 21.04 -1.66 17.08 -2 13 C-1.34 13 -0.68 13 0 13 C1.00392976 6.474566 1.00392976 6.474566 0 0 Z " fill="#D5D7D5" transform="translate(264,283)"/>
<path d="M0 0 C2.3125 -0.3125 2.3125 -0.3125 5 0 C7.24243223 2.86103423 8 4.34076304 8 8 C6.02 8.33 4.04 8.66 2 9 C0.93347808 6.69631264 -0.06421005 4.35981813 -1 2 C-0.67 1.34 -0.34 0.68 0 0 Z " fill="#B9BBBC" transform="translate(256,275)"/>
<path d="M0 0 C0.66 0 1.32 0 2 0 C2.49230769 7.38461538 2.49230769 7.38461538 0 10.5 C-0.66 10.995 -1.32 11.49 -2 12 C-3.32 11.34 -4.64 10.68 -6 10 C-5.65066406 9.52949219 -5.30132812 9.05898438 -4.94140625 8.57421875 C-4.48636719 7.95160156 -4.03132813 7.32898438 -3.5625 6.6875 C-2.88380859 5.76517578 -2.88380859 5.76517578 -2.19140625 4.82421875 C-0.82663692 2.90322899 -0.82663692 2.90322899 0 0 Z " fill="#EDEFEF" transform="translate(291,275)"/>
<path d="M0 0 C1.32 0.66 2.64 1.32 4 2 C3.07615834 3.67427615 2.13549431 5.33928003 1.1875 7 C0.40439453 8.3921875 0.40439453 8.3921875 -0.39453125 9.8125 C-0.92433594 10.534375 -1.45414062 11.25625 -2 12 C-2.99 12 -3.98 12 -5 12 C-4.20146425 7.2087855 -2.68305625 4.02458438 0 0 Z " fill="#0D0F0E" transform="translate(281,272)"/>
<path d="M0 0 C0.66 3.3 1.32 6.6 2 10 C0.35 9.67 -1.3 9.34 -3 9 C-3.66 6.69 -4.32 4.38 -5 2 C-2 0 -2 0 0 0 Z " fill="#111313" transform="translate(267,274)"/>
<path d="M0 0 C0.33 0 0.66 0 1 0 C1.33 1.65 1.66 3.3 2 5 C2.66 5 3.32 5 4 5 C4 7.97 4 10.94 4 14 C2.68 14 1.36 14 0 14 C0 9.38 0 4.76 0 0 Z " fill="#DADEDB" transform="translate(275,344)"/>
<path d="M0 0 C0.08333357 4.8333472 -0.04738513 9.23692563 -1 14 C-1.66 14 -2.32 14 -3 14 C-4.013244 9.38411065 -3.99847037 5.62927172 -3 1 C-1 0 -1 0 0 0 Z " fill="#F5F8F6" transform="translate(278,317)"/>
<path d="M0 0 C1.32 0.33 2.64 0.66 4 1 C4 4.3 4 7.6 4 11 C3.01 11.33 2.02 11.66 1 12 C0.03929566 9.11788698 -0.10581883 7.30149956 -0.0625 4.3125 C-0.05347656 3.50425781 -0.04445313 2.69601562 -0.03515625 1.86328125 C-0.02355469 1.24839844 -0.01195312 0.63351562 0 0 Z " fill="#F1F3F1" transform="translate(264,301)"/>
<path d="M0 0 C-0.61277612 2.96175123 -1.25372522 4.38058783 -3 7 C-2.01 8.485 -2.01 8.485 -1 10 C-1.99 10.33 -2.98 10.66 -4 11 C-4.66 11.99 -5.32 12.98 -6 14 C-7.55309735 8.1460177 -7.55309735 8.1460177 -6.0234375 4.9765625 C-2.55 0 -2.55 0 0 0 Z " fill="#ACADAD" transform="translate(289,278)"/>
<path d="M0 0 C1.42944945 2.35438733 2.08661261 3.48032433 1.625 6.25 C1.41875 6.8275 1.2125 7.405 1 8 C-1.99324263 6.9024777 -2.84610901 6.32317108 -4.25 3.375 C-4.4975 2.59125 -4.745 1.8075 -5 1 C-3 0 -3 0 0 0 Z " fill="#0F1012" transform="translate(239,209)"/>
<path d="M0 0 C-0.66 0 -1.32 0 -2 0 C-2.96070434 2.88211302 -3.10581883 4.69850044 -3.0625 7.6875 C-3.05347656 8.49574219 -3.04445313 9.30398438 -3.03515625 10.13671875 C-3.02355469 10.75160156 -3.01195312 11.36648438 -3 12 C-5 11 -5 11 -6 8 C-6.12781786 5.32605036 -6.04391871 2.67904143 -6 0 C-3.50907189 -1.24546405 -2.58919267 -0.7767578 0 0 Z " fill="#F7FAF7" transform="translate(273,332)"/>
<path d="M0 0 C0.99 0 1.98 0 3 0 C5.55579195 5.53754923 4.62077189 9.38963576 3 15 C1 13 1 13 0.8125 9.6875 C0.96682187 6.65250325 1.28659859 3.94278081 2 1 C1.34 0.67 0.68 0.34 0 0 Z " fill="#F8FAFA" transform="translate(261,283)"/>
<path d="M0 0 C0.66 0.33 1.32 0.66 2 1 C2.36658354 7.47630923 2.36658354 7.47630923 0.6875 9.875 C-1 11 -1 11 -4 12 C-3.52309796 10.37433394 -3.04340334 8.74948689 -2.5625 7.125 C-2.29566406 6.22007812 -2.02882813 5.31515625 -1.75390625 4.3828125 C-1 2 -1 2 0 0 Z " fill="#DEDEDC" transform="translate(317,282)"/>
<path d="M0 0 C0.33 0 0.66 0 1 0 C1.33 3.3 1.66 6.6 2 10 C1.01 10 0.02 10 -1 10 C-1.66 11.32 -2.32 12.64 -3 14 C-3.33 10.37 -3.66 6.74 -4 3 C-3.01 3.33 -2.02 3.66 -1 4 C-0.67 2.68 -0.34 1.36 0 0 Z " fill="#B6B9B7" transform="translate(268,307)"/>
<path d="M0 0 C0.66 0.33 1.32 0.66 2 1 C1.3125 3.375 1.3125 3.375 0 6 C-2.625 7.3125 -2.625 7.3125 -5 8 C-5.99 7.01 -6.98 6.02 -8 5 C-6.71475739 4.13619741 -5.42157581 3.28419631 -4.125 2.4375 C-3.04605469 1.72400391 -3.04605469 1.72400391 -1.9453125 0.99609375 C-1.30335938 0.66738281 -0.66140625 0.33867187 0 0 Z " fill="#DBDBD9" transform="translate(214,308)"/>
<path d="M0 0 C1.32 0.66 2.64 1.32 4 2 C3.67 4.64 3.34 7.28 3 10 C2.01 9.67 1.02 9.34 0 9 C0.33 8.01 0.66 7.02 1 6 C-0.32 5.34 -1.64 4.68 -3 4 C-2.01 2.68 -1.02 1.36 0 0 Z " fill="#FBFAFA" transform="translate(244,217)"/>
<path d="M0 0 C0.66 0.33 1.32 0.66 2 1 C1.67 1.721875 1.34 2.44375 1 3.1875 C-0.16166358 5.92478417 -0.16166358 5.92478417 0.0625 8.6875 C0.041875 9.450625 0.02125 10.21375 0 11 C-0.99 11.66 -1.98 12.32 -3 13 C-3.66 11.02 -4.32 9.04 -5 7 C-4.34 6.67 -3.68 6.34 -3 6 C-2.65657551 4.66923011 -2.32380126 3.33568021 -2 2 C-1.34 1.34 -0.68 0.68 0 0 Z " fill="#FAFBFA" transform="translate(283,281)"/>
<path d="M0 0 C1.00023193 0.00523682 2.00046387 0.01047363 3.03100586 0.01586914 C4.1105957 0.0190918 5.19018555 0.02231445 6.30249023 0.02563477 C8.00695312 0.03820312 8.00695312 0.03820312 9.74584961 0.05102539 C11.45611328 0.05779297 11.45611328 0.05779297 13.20092773 0.06469727 C16.02845312 0.07652792 18.85587601 0.09301129 21.68334961 0.11352539 C21.68334961 0.44352539 21.68334961 0.77352539 21.68334961 1.11352539 C20.74483154 1.15110962 20.74483154 1.15110962 19.78735352 1.18945312 C16.96080341 1.30527812 14.13459792 1.42806524 11.30834961 1.55102539 C9.83108398 1.61 9.83108398 1.61 8.32397461 1.67016602 C6.91245117 1.73300781 6.91245117 1.73300781 5.47241211 1.79711914 C4.60310059 1.83377686 3.73378906 1.87043457 2.83813477 1.90820312 C0.63502341 1.98754083 0.63502341 1.98754083 -1.31665039 3.11352539 C-1.97665039 2.45352539 -2.63665039 1.79352539 -3.31665039 1.11352539 C-2.31665039 0.11352539 -2.31665039 0.11352539 0 0 Z " fill="#DFE2DF" transform="translate(258.316650390625,361.886474609375)"/>
<path d="M0 0 C1.1354047 2.78690244 1.04764304 3.86898163 0 6.75 C-2 9 -2 9 -5.6875 9.3125 C-6.780625 9.209375 -7.87375 9.10625 -9 9 C-6.38485683 6.87961365 -3.80362384 4.86908256 -1 3 C-0.67 2.01 -0.34 1.02 0 0 Z " fill="#CCCCCA" transform="translate(345,230)"/>
<path d="M0 0 C0.99 0 1.98 0 3 0 C3 2.64 3 5.28 3 8 C2.01 8.33 1.02 8.66 0 9 C0 6.03 0 3.06 0 0 Z " fill="#F9FAF8" transform="translate(268,271)"/>
<path d="M0 0 C0.78375 0.04125 1.5675 0.0825 2.375 0.125 C2.705 0.785 3.035 1.445 3.375 2.125 C2.735625 2.24875 2.09625 2.3725 1.4375 2.5 C0.756875 2.70625 0.07625 2.9125 -0.625 3.125 C-0.955 3.785 -1.285 4.445 -1.625 5.125 C-2.615 5.125 -3.605 5.125 -4.625 5.125 C-4.955 5.785 -5.285 6.445 -5.625 7.125 C-4.53409091 0.21590909 -4.53409091 0.21590909 0 0 Z " fill="#D4D5D3" transform="translate(256.625,272.875)"/>
<path d="M0 0 C2.64 0 5.28 0 8 0 C7.67 1.32 7.34 2.64 7 4 C4.36 3.67 1.72 3.34 -1 3 C-0.67 2.01 -0.34 1.02 0 0 Z " fill="#E3E3E1" transform="translate(200,227)"/>
<path d="M0 0 C0 1.32 0 2.64 0 4 C-1.98 4 -3.96 4 -6 4 C-6.33 3.01 -6.66 2.02 -7 1 C-4.53721199 -0.231394 -2.7204945 -0.07159196 0 0 Z " fill="#171717" transform="translate(288,364)"/>
<path d="M0 0 C1.65 0.33 3.3 0.66 5 1 C5.33 1.99 5.66 2.98 6 4 C2.77208445 6.1519437 1.71599191 6.20086443 -2 6 C-1.01 4.68 -0.02 3.36 1 2 C0.67 1.34 0.34 0.68 0 0 Z " fill="#F8F8F8" transform="translate(251,361)"/>
<path d="M0 0 C-0.99 0.33 -1.98 0.66 -3 1 C-3 2.65 -3 4.3 -3 6 C-4.32 6 -5.64 6 -7 6 C-6.75 3.625 -6.75 3.625 -6 1 C-2.69333333 -1.34666667 -2.69333333 -1.34666667 0 0 Z " fill="#232321" transform="translate(206,310)"/>
<path d="M0 0 C1.98 0 3.96 0 6 0 C6.98120464 3.05263664 6.98120464 4.94736336 6 8 C5.38125 7.05125 4.7625 6.1025 4.125 5.125 C2.18029031 2.05554891 2.18029031 2.05554891 0 0 Z " fill="#DCDDDA" transform="translate(230,198)"/>
<path d="M0 0 C1.98 0.495 1.98 0.495 4 1 C4 2.65 4 4.3 4 6 C2.33333333 6 0.66666667 6 -1 6 C-0.67 4.02 -0.34 2.04 0 0 Z " fill="#F6F7F7" transform="translate(260,384)"/>
<path d="M0 0 C3.62528568 -0.20140476 5.86501708 0.14223235 9 2 C9 3.98 9 5.96 9 8 C8.67 8 8.34 8 8 8 C8 6.35 8 4.7 8 3 C6.02463255 3.34786708 6.02463255 3.34786708 4 4 C3.67 4.66 3.34 5.32 3 6 C3 4.68 3 3.36 3 2 C2.01 1.34 1.02 0.68 0 0 Z " fill="#2C2D2D" transform="translate(270,287)"/>
<path d="M0 0 C0.99 0.33 1.98 0.66 3 1 C2.67 3.31 2.34 5.62 2 8 C1.67 7.34 1.34 6.68 1 6 C0.34 6 -0.32 6 -1 6 C-1.33 4.68 -1.66 3.36 -2 2 C-1.34 2 -0.68 2 0 2 C0 1.34 0 0.68 0 0 Z " fill="#F0F1EF" transform="translate(260,283)"/>
<path d="M0 0 C0.33 0 0.66 0 1 0 C1.33 3.3 1.66 6.6 2 10 C0.68 10.33 -0.64 10.66 -2 11 C-2 9.35 -2 7.7 -2 6 C-1.34 6 -0.68 6 0 6 C0 4.02 0 2.04 0 0 Z " fill="#E7E8E8" transform="translate(270,320)"/>
<path d="M0 0 C0.93423645 3.01031744 1.04449911 3.86650268 0 7 C-1.65 7.33 -3.3 7.66 -5 8 C-5 7.34 -5 6.68 -5 6 C-5.66 5.67 -6.32 5.34 -7 5 C-5.02 5 -3.04 5 -1 5 C-0.67 3.35 -0.34 1.7 0 0 Z " fill="#E3E3E2" transform="translate(357,271)"/>
<path d="M0 0 C0.66 0.33 1.32 0.66 2 1 C2 2.32 2 3.64 2 5 C0.35 5.66 -1.3 6.32 -3 7 C-3 3 -3 3 -1.5 1.25 C-1.005 0.8375 -0.51 0.425 0 0 Z " fill="#121110" transform="translate(206,308)"/>
<path d="M0 0 C1.98 0.99 1.98 0.99 4 2 C3.67 4.97 3.34 7.94 3 11 C2.67 11 2.34 11 2 11 C2 9.02 2 7.04 2 5 C1.34 5 0.68 5 0 5 C0 3.35 0 1.7 0 0 Z " fill="#DFE1DE" transform="translate(279,290)"/>
<path d="M0 0 C1.98 0.99 1.98 0.99 4 2 C3.67 2.99 3.34 3.98 3 5 C3.66 5.33 4.32 5.66 5 6 C3.68 6.99 2.36 7.98 1 9 C0.67 6.03 0.34 3.06 0 0 Z " fill="#C8CBCA" transform="translate(264,283)"/>
<path d="M0 0 C1.32 0.66 2.64 1.32 4 2 C2.68 3.65 1.36 5.3 0 7 C-0.66 5.35 -1.32 3.7 -2 2 C-1.34 1.34 -0.68 0.68 0 0 Z " fill="#181817" transform="translate(281,272)"/>
<path d="M0 0 C0.33 0.99 0.66 1.98 1 3 C0.01 3.99 -0.98 4.98 -2 6 C-2 5.34 -2 4.68 -2 4 C-3.65 4 -5.3 4 -7 4 C-3.375 0 -3.375 0 0 0 Z " fill="#D7D7D7" transform="translate(311,214)"/>
<path d="M0 0 C2.97 0.495 2.97 0.495 6 1 C4.68 2.32 3.36 3.64 2 5 C2 4.34 2 3.68 2 3 C1.34 3 0.68 3 0 3 C0 2.01 0 1.02 0 0 Z " fill="#CDCECD" transform="translate(393,428)"/>
<path d="M0 0 C2.00720923 0.28674418 4.0085944 0.61866701 6 1 C5.34 2.32 4.68 3.64 4 5 C3.34 4.67 2.68 4.34 2 4 C2 3.34 2 2.68 2 2 C1.01 1.67 0.02 1.34 -1 1 C-0.67 0.67 -0.34 0.34 0 0 Z " fill="#CFCECE" transform="translate(286,273)"/>
<path d="M0 0 C1.32 0 2.64 0 4 0 C3.67 1.65 3.34 3.3 3 5 C1.68 4.34 0.36 3.68 -1 3 C-0.67 2.01 -0.34 1.02 0 0 Z " fill="#16151A" transform="translate(311,200)"/>
<path d="M0 0 C0.66 0.33 1.32 0.66 2 1 C2.625 3.5625 2.625 3.5625 3 6 C1.35 6.33 -0.3 6.66 -2 7 C-1.34 4.69 -0.68 2.38 0 0 Z " fill="#D4D4D3" transform="translate(315,200)"/>
</svg>
